<mxfile host="app.diagrams.net" agent="Mozilla/5.0 (Windows NT 10.0; Win64; x64) AppleWebKit/537.36 (KHTML, like Gecko) Chrome/132.0.0.0 Safari/537.36" version="26.0.6">
  <diagram name="Page-1" id="tkPbOlIVYCc7z6LZKQDi">
    <mxGraphModel dx="1194" dy="708" grid="1" gridSize="10" guides="1" tooltips="1" connect="1" arrows="1" fold="1" page="1" pageScale="1" pageWidth="850" pageHeight="1100" math="0" shadow="0">
      <root>
        <mxCell id="0" />
        <mxCell id="1" parent="0" />
        <mxCell id="nr_lRK3BcsNVmrG0WNdg-1" value="git repo" style="rounded=0;whiteSpace=wrap;html=1;" vertex="1" parent="1">
          <mxGeometry x="20" y="20" width="120" height="60" as="geometry" />
        </mxCell>
        <mxCell id="nr_lRK3BcsNVmrG0WNdg-2" value="codepipeline" style="rounded=0;whiteSpace=wrap;html=1;" vertex="1" parent="1">
          <mxGeometry x="70" y="130" width="530" height="370" as="geometry" />
        </mxCell>
        <mxCell id="nr_lRK3BcsNVmrG0WNdg-3" value="codebuild" style="rounded=0;whiteSpace=wrap;html=1;" vertex="1" parent="1">
          <mxGeometry x="190" y="370" width="120" height="60" as="geometry" />
        </mxCell>
        <mxCell id="nr_lRK3BcsNVmrG0WNdg-4" value="codedeploy" style="rounded=0;whiteSpace=wrap;html=1;" vertex="1" parent="1">
          <mxGeometry x="440" y="360" width="120" height="60" as="geometry" />
        </mxCell>
        <mxCell id="nr_lRK3BcsNVmrG0WNdg-5" value="S3" style="rounded=0;whiteSpace=wrap;html=1;" vertex="1" parent="1">
          <mxGeometry x="480" y="10" width="120" height="60" as="geometry" />
        </mxCell>
        <mxCell id="nr_lRK3BcsNVmrG0WNdg-6" value="ECS Fargate" style="rounded=0;whiteSpace=wrap;html=1;" vertex="1" parent="1">
          <mxGeometry x="730" y="200" width="120" height="60" as="geometry" />
        </mxCell>
        <mxCell id="nr_lRK3BcsNVmrG0WNdg-7" value="PULL" style="shape=flexArrow;endArrow=classic;html=1;rounded=0;exitX=0.75;exitY=1;exitDx=0;exitDy=0;" edge="1" parent="1" source="nr_lRK3BcsNVmrG0WNdg-1" target="nr_lRK3BcsNVmrG0WNdg-3">
          <mxGeometry width="50" height="50" relative="1" as="geometry">
            <mxPoint x="120" y="250" as="sourcePoint" />
            <mxPoint x="170" y="200" as="targetPoint" />
          </mxGeometry>
        </mxCell>
        <mxCell id="nr_lRK3BcsNVmrG0WNdg-8" value="PUT S3" style="shape=flexArrow;endArrow=classic;html=1;rounded=0;exitX=0.675;exitY=0;exitDx=0;exitDy=0;exitPerimeter=0;entryX=0.183;entryY=1.083;entryDx=0;entryDy=0;entryPerimeter=0;" edge="1" parent="1" source="nr_lRK3BcsNVmrG0WNdg-3" target="nr_lRK3BcsNVmrG0WNdg-5">
          <mxGeometry width="50" height="50" relative="1" as="geometry">
            <mxPoint x="400" y="160" as="sourcePoint" />
            <mxPoint x="450" y="110" as="targetPoint" />
          </mxGeometry>
        </mxCell>
        <mxCell id="nr_lRK3BcsNVmrG0WNdg-9" value="READ s3" style="shape=flexArrow;endArrow=classic;html=1;rounded=0;exitX=0.4;exitY=1.033;exitDx=0;exitDy=0;exitPerimeter=0;entryX=0.642;entryY=0.083;entryDx=0;entryDy=0;entryPerimeter=0;" edge="1" parent="1" source="nr_lRK3BcsNVmrG0WNdg-5" target="nr_lRK3BcsNVmrG0WNdg-4">
          <mxGeometry width="50" height="50" relative="1" as="geometry">
            <mxPoint x="500" y="280" as="sourcePoint" />
            <mxPoint x="550" y="230" as="targetPoint" />
          </mxGeometry>
        </mxCell>
        <mxCell id="nr_lRK3BcsNVmrG0WNdg-10" value="" style="shape=flexArrow;endArrow=classic;html=1;rounded=0;" edge="1" parent="1">
          <mxGeometry width="50" height="50" relative="1" as="geometry">
            <mxPoint x="400" y="160" as="sourcePoint" />
            <mxPoint x="450" y="110" as="targetPoint" />
          </mxGeometry>
        </mxCell>
        <mxCell id="nr_lRK3BcsNVmrG0WNdg-12" value="" style="shape=flexArrow;endArrow=classic;html=1;rounded=0;" edge="1" parent="1">
          <mxGeometry width="50" height="50" relative="1" as="geometry">
            <mxPoint x="400" y="160" as="sourcePoint" />
            <mxPoint x="450" y="110" as="targetPoint" />
          </mxGeometry>
        </mxCell>
        <mxCell id="nr_lRK3BcsNVmrG0WNdg-13" value="DEPLOY TO FARGATE" style="shape=flexArrow;endArrow=classic;html=1;rounded=0;entryX=0.308;entryY=1;entryDx=0;entryDy=0;entryPerimeter=0;" edge="1" parent="1" source="nr_lRK3BcsNVmrG0WNdg-4" target="nr_lRK3BcsNVmrG0WNdg-6">
          <mxGeometry width="50" height="50" relative="1" as="geometry">
            <mxPoint x="570" y="390" as="sourcePoint" />
            <mxPoint x="620" y="340" as="targetPoint" />
          </mxGeometry>
        </mxCell>
      </root>
    </mxGraphModel>
  </diagram>
</mxfile>
